<svg xmlns="http://www.w3.org/2000/svg" width="32" height="32" viewBox="0 0 32 32"><path fill="#595A5C" d="M15.997,31.953c-8.798,0-15.955-7.155-15.955-15.954c0-8.796,7.156-15.953,15.955-15.953 c8.802,0,15.96,7.156,15.96,15.953C31.957,24.798,24.799,31.953,15.997,31.953 M15.997,2.709c-7.328,0-13.291,5.961-13.291,13.29 c0,7.33,5.963,13.291,13.291,13.291c7.333,0,13.298-5.961,13.298-13.291C29.295,8.67,23.33,2.709,15.997,2.709 M14.116,24.762c-1.705-3.559-3.299-6.719-5.54-9.354l1.997-1.697c1.508,1.773,2.725,3.715,3.854,5.818 c1.138-4.415,4.076-8.92,7.056-11.688l1.784,1.92c-3.594,3.341-7.163,9.754-6.665,14.292L14.116,24.762z"/></svg>
