<svg xmlns="http://www.w3.org/2000/svg" width="32" height="32" viewBox="0 0 32 32">
    <path fill="#58595B" d="M15.706 31.408C7.046 31.408 0 24.365 0 15.705S7.045 0 15.706 0s15.708 7.045 15.708 15.705-7.047 15.703-15.708 15.703m0-28.787C8.49 2.62 2.62 8.49 2.62 15.706c0 7.213 5.87 13.083 13.086 13.083 7.218 0 13.087-5.87 13.087-13.083 0-7.214-5.87-13.083-13.087-13.083"/>
    <path fill="#58595B" d="M13.497 9.4V7.376h4.42v2.02l-1.187 9.208h-2.047L13.497 9.4zm.184 10.586h4.055v4.045H13.68v-4.043z"/>
</svg>
