<?xml version="1.0" encoding="utf-8"?>
<!-- Generator: Adobe Illustrator 16.0.0, SVG Export Plug-In . SVG Version: 6.00 Build 0)  -->
<!DOCTYPE svg PUBLIC "-//W3C//DTD SVG 1.1//EN" "http://www.w3.org/Graphics/SVG/1.1/DTD/svg11.dtd">
<svg version="1.1" id="Layer_1" xmlns="http://www.w3.org/2000/svg" xmlns:xlink="http://www.w3.org/1999/xlink" x="0px" y="0px"
	 width="32px" height="32px" viewBox="0 0 32 32" enable-background="new 0 0 32 32" xml:space="preserve">
<path fill="#595A5C" d="M15.995,31.969c-8.812,0-15.979-7.17-15.979-15.983C0.016,7.171,7.183,0,15.995,0
	C24.811,0,31.98,7.171,31.98,15.986C31.979,24.799,24.811,31.969,15.995,31.969 M15.995,2.668c-7.339,0-13.311,5.973-13.311,13.317
	c0,7.342,5.971,13.316,13.311,13.316c7.345,0,13.317-5.974,13.317-13.316C29.312,8.641,23.34,2.668,15.995,2.668"/>
<g enable-background="new    ">
	<path fill="#595A5C" d="M7.043,19.739c0.504-0.355,0.968-0.708,1.392-1.058C8.859,18.333,9.244,18,9.587,17.685
		c0.344-0.314,0.645-0.602,0.902-0.859c0.258-0.258,0.461-0.473,0.61-0.645c0.069-0.08,0.172-0.203,0.31-0.369
		s0.278-0.373,0.421-0.619c0.143-0.246,0.266-0.524,0.369-0.834c0.104-0.31,0.155-0.647,0.155-1.014
		c0-0.481-0.126-0.892-0.378-1.229c-0.252-0.338-0.636-0.507-1.152-0.507c-0.39,0-0.696,0.086-0.92,0.258
		c-0.223,0.172-0.387,0.387-0.49,0.645s-0.166,0.527-0.189,0.808c-0.023,0.281-0.035,0.536-0.035,0.766v0.223l-2.148-0.206v-0.086
		c0-0.733,0.088-1.338,0.266-1.813s0.364-0.845,0.559-1.108c0.091-0.138,0.226-0.29,0.404-0.456s0.396-0.323,0.653-0.473
		c0.258-0.148,0.561-0.275,0.911-0.378c0.349-0.104,0.742-0.155,1.177-0.155c0.344,0,0.656,0.032,0.937,0.095
		c0.281,0.063,0.53,0.144,0.748,0.241s0.404,0.2,0.559,0.31c0.154,0.108,0.283,0.209,0.387,0.301
		c0.378,0.332,0.653,0.739,0.825,1.22c0.172,0.481,0.258,0.975,0.258,1.479c0,0.172-0.023,0.428-0.069,0.766
		c-0.046,0.338-0.172,0.725-0.378,1.16c-0.172,0.355-0.381,0.69-0.627,1.006c-0.247,0.314-0.51,0.612-0.791,0.894
		c-0.281,0.281-0.573,0.547-0.877,0.799c-0.304,0.253-0.604,0.505-0.902,0.757c-0.206,0.172-0.41,0.341-0.61,0.507
		s-0.41,0.324-0.627,0.473h5.088v1.788h-7.89V19.739z"/>
	<path fill="#595A5C" d="M23.202,18.76v2.664h-2.097V18.76h-5.089v-1.513l5.089-7.427h2.097v7.168h1.495v1.771H23.202z
		 M21.105,16.988c0-0.034,0.002-0.126,0.008-0.274c0.006-0.149,0.012-0.335,0.018-0.559s0.012-0.473,0.018-0.748
		s0.014-0.55,0.025-0.825c0.023-0.653,0.04-1.387,0.052-2.2l-2.991,4.606H21.105z"/>
</g>
</svg>
