<?xml version="1.0" encoding="utf-8"?>
<!-- Generator: Adobe Illustrator 16.0.0, SVG Export Plug-In . SVG Version: 6.00 Build 0)  -->
<!DOCTYPE svg PUBLIC "-//W3C//DTD SVG 1.1//EN" "http://www.w3.org/Graphics/SVG/1.1/DTD/svg11.dtd">
<svg version="1.1" id="Layer_1" xmlns="http://www.w3.org/2000/svg" xmlns:xlink="http://www.w3.org/1999/xlink" x="0px" y="0px"
	 width="32px" height="32px" viewBox="0 0 32 32" enable-background="new 0 0 32 32" xml:space="preserve">
<path fill="#595A5C" d="M15.995,31.969c-8.812,0-15.979-7.17-15.979-15.983C0.016,7.171,7.183,0,15.995,0
	C24.811,0,31.98,7.171,31.98,15.986C31.979,24.799,24.811,31.969,15.995,31.969 M15.995,2.668c-7.339,0-13.311,5.973-13.311,13.317
	c0,7.342,5.971,13.316,13.311,13.316c7.345,0,13.317-5.974,13.317-13.316C29.312,8.641,23.34,2.668,15.995,2.668"/>
<g>
	<g>
		<path fill="#595A5C" d="M14.48,8.474c0.892-0.083,1.585-0.852,1.585-1.75c0-0.969-0.789-1.758-1.756-1.758
			c-0.967,0-1.758,0.789-1.758,1.758c0,0.294,0.082,0.597,0.22,0.851l0.626,8.818l6.442,0.003l2.646,6.198l3.474-1.363l-0.538-1.278
			l-1.943,0.7l-2.56-5.917l-5.989,0.04l-0.01-1.983l4.458-0.042l-0.208-1.125l-4.458-0.042L14.48,8.474z"/>
		<path fill="#5A5B5C" d="M22.282,23.076l-2.691-6.306l-6.543-0.003l-0.646-9.089c-0.146-0.297-0.227-0.633-0.227-0.955
			c0-1.176,0.957-2.133,2.133-2.133c1.175,0,2.131,0.957,2.131,2.133c0,0.964-0.662,1.805-1.562,2.056l0.18,2.432l4.422,0.042
			l0.346,1.868l-4.531,0.043l0.006,1.234l5.862-0.039l2.518,5.82l1.947-0.701l0.825,1.961L22.282,23.076z M13.746,16.018
			l6.341,0.003l2.6,6.09l2.776-1.09l-0.251-0.596l-1.939,0.699l-2.602-6.013l-6.116,0.041l-0.014-2.732l4.385-0.041l-0.07-0.382
			l-4.494-0.042l-0.283-3.821l0.367-0.034c0.698-0.065,1.245-0.669,1.245-1.376c0-0.763-0.62-1.383-1.381-1.383
			c-0.763,0-1.383,0.621-1.383,1.383c0,0.226,0.062,0.465,0.175,0.672l0.044,0.153L13.746,16.018z"/>
	</g>
	<g>
		<path fill="#595A5C" d="M19.863,22.014c-1.088,2.153-3.365,3.569-5.795,3.569c-3.569,0-6.481-2.91-6.481-6.479
			c0-2.506,1.52-4.838,3.786-5.872l0.146,1.915c-1.34,0.846-2.167,2.373-2.167,3.97c0,2.59,2.112,4.701,4.702,4.701
			c2.37,0,4.387-1.818,4.662-4.15L19.863,22.014z"/>
		<path fill="#5A5B5C" d="M14.068,25.958c-3.78,0-6.856-3.075-6.856-6.854c0-2.624,1.61-5.121,4.005-6.213l0.489-0.223l0.204,2.676
			l-0.191,0.12c-1.229,0.776-1.992,2.176-1.992,3.653c0,2.386,1.941,4.326,4.327,4.326c2.153,0,4.038-1.678,4.29-3.819l0.148-1.267
			l1.79,3.659l-0.084,0.166C19.039,24.477,16.633,25.958,14.068,25.958z M11.042,13.823c-1.862,1.07-3.08,3.127-3.08,5.28
			c0,3.366,2.739,6.104,6.106,6.104c2.224,0,4.313-1.25,5.375-3.2l-0.604-1.232c-0.701,1.983-2.628,3.418-4.786,3.418
			c-2.799,0-5.077-2.277-5.077-5.076c0-1.655,0.819-3.228,2.151-4.161L11.042,13.823z"/>
	</g>
</g>
</svg>
