<?xml version="1.0" encoding="utf-8"?>
<!-- Generator: Adobe Illustrator 16.0.0, SVG Export Plug-In . SVG Version: 6.00 Build 0)  -->
<!DOCTYPE svg PUBLIC "-//W3C//DTD SVG 1.1//EN" "http://www.w3.org/Graphics/SVG/1.1/DTD/svg11.dtd">
<svg version="1.1" id="Layer_1" xmlns="http://www.w3.org/2000/svg" xmlns:xlink="http://www.w3.org/1999/xlink" x="0px" y="0px"
	 width="32px" height="32px" viewBox="0 0 32 32" enable-background="new 0 0 32 32" xml:space="preserve">
<path fill="#595A5C" d="M15.996,31.889c-8.787,0-15.936-7.147-15.936-15.935c0-8.788,7.148-15.935,15.936-15.935
	c8.792,0,15.943,7.147,15.943,15.935C31.939,24.74,24.788,31.889,15.996,31.889 M15.996,2.678c-7.318,0-13.274,5.955-13.274,13.275
	S8.678,29.23,15.996,29.23c7.324,0,13.283-5.957,13.283-13.277S23.32,2.678,15.996,2.678"/>
<g>
	<path fill="#595A5C" d="M25.415,13.515H6.724l9.345-6.958L25.415,13.515z"/>
</g>
<rect x="6.45" y="15.45" fill="#595A5C" width="18.999" height="6.999"/>
</svg>
