<?xml version="1.0" encoding="utf-8"?>
<!-- Generator: Adobe Illustrator 16.0.0, SVG Export Plug-In . SVG Version: 6.00 Build 0)  -->
<!DOCTYPE svg PUBLIC "-//W3C//DTD SVG 1.1//EN" "http://www.w3.org/Graphics/SVG/1.1/DTD/svg11.dtd">
<svg version="1.1" id="Layer_1" xmlns="http://www.w3.org/2000/svg" xmlns:xlink="http://www.w3.org/1999/xlink" x="0px" y="0px"
	 width="32px" height="32px" viewBox="0 0 32 32" enable-background="new 0 0 32 32" xml:space="preserve">
<path fill="#595A5C" d="M15.997,31.918c-8.788,0-15.936-7.149-15.936-15.936c0-8.787,7.147-15.935,15.936-15.935
	c8.792,0,15.944,7.147,15.944,15.935C31.94,24.769,24.788,31.918,15.997,31.918 M15.997,2.707c-7.319,0-13.275,5.955-13.275,13.275
	c0,7.321,5.956,13.277,13.275,13.277c7.324,0,13.284-5.956,13.284-13.277C29.28,8.662,23.32,2.707,15.997,2.707"/>
<polygon fill="#595A5C" points="10.959,22.162 9.068,20.271 13.262,16.075 9.068,11.88 10.959,9.988 17.045,16.075 "/>
<polygon fill="#595A5C" points="18.362,22.162 16.471,20.271 20.664,16.075 16.471,11.88 18.362,9.988 24.448,16.075 "/>
</svg>
