<?xml version="1.0" encoding="utf-8"?>
<!-- Generator: Adobe Illustrator 16.0.0, SVG Export Plug-In . SVG Version: 6.00 Build 0)  -->
<!DOCTYPE svg PUBLIC "-//W3C//DTD SVG 1.1//EN" "http://www.w3.org/Graphics/SVG/1.1/DTD/svg11.dtd">
<svg version="1.1" id="Layer_1" xmlns="http://www.w3.org/2000/svg" xmlns:xlink="http://www.w3.org/1999/xlink" x="0px" y="0px"
	 width="32px" height="32px" viewBox="0 0 32 32" enable-background="new 0 0 32 32" xml:space="preserve">
<path fill="#595A5C" d="M15.995,31.969c-8.812,0-15.979-7.17-15.979-15.983C0.016,7.171,7.183,0,15.995,0
	C24.811,0,31.98,7.171,31.98,15.986C31.979,24.799,24.811,31.969,15.995,31.969 M15.995,2.668c-7.339,0-13.311,5.973-13.311,13.317
	c0,7.342,5.971,13.316,13.311,13.316c7.345,0,13.317-5.974,13.317-13.316C29.312,8.641,23.34,2.668,15.995,2.668"/>
<path fill="#5A5B5C" d="M23.868,23.751H7.901c-1.729,0-3.135-1.508-3.135-3.36V11.21c0-1.853,1.407-3.36,3.135-3.36h15.967
	c1.729,0,3.135,1.507,3.135,3.36v9.181C27.003,22.243,25.597,23.751,23.868,23.751z M7.901,10.25c-0.398,0-0.735,0.439-0.735,0.96
	v9.181c0,0.521,0.336,0.96,0.735,0.96h15.967c0.398,0,0.734-0.439,0.734-0.96V11.21c0-0.521-0.336-0.96-0.734-0.96H7.901z"/>
<path fill="#58595B" d="M8.379,19.285v-1.743c0-0.615,0.882-1.118,1.965-1.118h3.124c1.083,0,1.965,0.502,1.965,1.118v1.713v0.03
	C13.235,19.887,10.579,19.887,8.379,19.285"/>
<path fill="#58595B" d="M9.943,13.909c0-1.02,0.831-1.849,1.85-1.849s1.85,0.83,1.85,1.849c0,1.021-0.831,1.85-1.85,1.85
	S9.943,14.93,9.943,13.909"/>
</svg>
