<?xml version="1.0" encoding="utf-8"?>
<!-- Generator: Adobe Illustrator 16.0.0, SVG Export Plug-In . SVG Version: 6.00 Build 0)  -->
<!DOCTYPE svg PUBLIC "-//W3C//DTD SVG 1.1//EN" "http://www.w3.org/Graphics/SVG/1.1/DTD/svg11.dtd">
<svg version="1.1" id="Layer_1" xmlns="http://www.w3.org/2000/svg" xmlns:xlink="http://www.w3.org/1999/xlink" x="0px" y="0px"
	 width="20px" height="16.25px" viewBox="0 0 20 16.25" enable-background="new 0 0 20 16.25" xml:space="preserve">
<g>
	<path fill="#787878" d="M18.094,1.869v12.404H1.875V1.869H18.094 M19.943,0.019h-1.85H1.875h-1.85v1.85v12.404v1.85h1.85h16.219
		h1.85v-1.85V1.869V0.019L19.943,0.019z"/>
</g>
<rect x="2.9" y="5.731" fill="#787878" width="2.844" height="1.906"/>
<rect x="6.7" y="5.731" fill="#787878" width="2.844" height="1.906"/>
<rect x="10.5" y="5.731" fill="#787878" width="2.844" height="1.906"/>
<rect x="14.3" y="5.731" fill="#787878" width="2.844" height="1.906"/>
<rect x="6.7" y="2.831" fill="#787878" width="2.844" height="1.906"/>
<rect x="10.5" y="2.831" fill="#787878" width="2.844" height="1.906"/>
<rect x="14.3" y="2.831" fill="#787878" width="2.844" height="1.906"/>
<rect x="2.9" y="8.531" fill="#787878" width="2.844" height="1.907"/>
<rect x="6.7" y="8.531" fill="#787878" width="2.844" height="1.907"/>
<rect x="10.5" y="8.531" fill="#787878" width="2.844" height="1.907"/>
<rect x="14.3" y="8.531" fill="#787878" width="2.844" height="1.907"/>
<rect x="2.9" y="11.427" fill="#787878" width="2.844" height="1.907"/>
<rect x="6.7" y="11.427" fill="#787878" width="2.844" height="1.907"/>
<rect x="10.5" y="11.427" fill="#787878" width="2.844" height="1.907"/>
</svg>
