<?xml version="1.0" encoding="utf-8"?>
<!-- Generator: Adobe Illustrator 16.0.0, SVG Export Plug-In . SVG Version: 6.00 Build 0)  -->
<!DOCTYPE svg PUBLIC "-//W3C//DTD SVG 1.1//EN" "http://www.w3.org/Graphics/SVG/1.1/DTD/svg11.dtd">
<svg version="1.1" id="Layer_1" xmlns="http://www.w3.org/2000/svg" xmlns:xlink="http://www.w3.org/1999/xlink" x="0px" y="0px"
	 width="32px" height="32px" viewBox="0 0 32 32" enable-background="new 0 0 32 32" xml:space="preserve">
<path fill="#5A5B5D" d="M15.998,31.985c-8.822,0-15.997-7.17-15.997-15.983c0-8.815,7.175-15.986,15.997-15.986
	c8.822,0,16.001,7.171,16.001,15.986C31.999,24.815,24.82,31.985,15.998,31.985 M15.998,2.683c-7.35,0-13.327,5.973-13.327,13.318
	c0,7.342,5.977,13.316,13.327,13.316c7.351,0,13.33-5.976,13.33-13.316C29.328,8.656,23.349,2.683,15.998,2.683"/>
<g>
	<path fill="#58595B" d="M15.171,23.567c-1.144-0.088-2.142-0.332-2.992-0.736c-0.851-0.402-1.562-0.92-2.134-1.551l1.43-1.98
		c0.425,0.455,0.946,0.865,1.562,1.232c0.616,0.367,1.327,0.609,2.134,0.727v-4.246c-0.572-0.147-1.137-0.316-1.694-0.506
		c-0.558-0.19-1.056-0.444-1.496-0.759c-0.44-0.315-0.796-0.715-1.067-1.199c-0.271-0.484-0.407-1.085-0.407-1.804
		c0-0.557,0.11-1.082,0.33-1.573c0.22-0.492,0.531-0.924,0.935-1.298c0.403-0.374,0.895-0.682,1.474-0.924
		c0.579-0.242,1.221-0.392,1.925-0.451V6.452h1.782V8.52c1.773,0.191,3.248,0.851,4.422,1.98L19.9,12.414
		c-0.426-0.41-0.887-0.74-1.385-0.99c-0.5-0.25-1.02-0.433-1.562-0.55v3.784c0.572,0.162,1.141,0.341,1.705,0.539
		c0.564,0.198,1.074,0.462,1.529,0.792c0.453,0.33,0.82,0.745,1.1,1.242c0.277,0.5,0.418,1.115,0.418,1.85
		c0,0.557-0.092,1.092-0.275,1.605s-0.469,0.971-0.857,1.375c-0.389,0.402-0.885,0.736-1.486,1s-1.312,0.434-2.133,0.506v1.98
		h-1.782V23.567z M13.147,12.568c0,0.425,0.19,0.763,0.572,1.012c0.381,0.25,0.865,0.455,1.452,0.616v-3.432
		c-0.631,0.074-1.126,0.271-1.485,0.594C13.326,11.681,13.147,12.084,13.147,12.568z M19.064,19.323c0-0.5-0.199-0.885-0.598-1.156
		c-0.4-0.271-0.904-0.502-1.514-0.693v3.807c0.754-0.117,1.295-0.367,1.621-0.748C18.902,20.151,19.064,19.747,19.064,19.323z"/>
</g>
</svg>
