<?xml version="1.0" encoding="utf-8"?>
<!-- Generator: Adobe Illustrator 16.0.0, SVG Export Plug-In . SVG Version: 6.00 Build 0)  -->
<!DOCTYPE svg PUBLIC "-//W3C//DTD SVG 1.1//EN" "http://www.w3.org/Graphics/SVG/1.1/DTD/svg11.dtd">
<svg version="1.1" id="Layer_1" xmlns="http://www.w3.org/2000/svg" xmlns:xlink="http://www.w3.org/1999/xlink" x="0px" y="0px"
	 width="32px" height="32px" viewBox="0 0 32 32" enable-background="new 0 0 32 32" xml:space="preserve">
<path fill="#595A5C" d="M15.995,31.969c-8.812,0-15.979-7.17-15.979-15.983C0.016,7.171,7.183,0,15.995,0
	C24.811,0,31.98,7.171,31.98,15.986C31.979,24.799,24.811,31.969,15.995,31.969 M15.995,2.668c-7.339,0-13.311,5.973-13.311,13.317
	c0,7.342,5.971,13.316,13.311,13.316c7.345,0,13.317-5.974,13.317-13.316C29.312,8.641,23.34,2.668,15.995,2.668"/>
<path fill="#595A5C" d="M7.75,25.006c-0.787,0-1.424-0.638-1.424-1.425v-10.88c0-0.787,0.638-1.424,1.424-1.424
	s1.424,0.638,1.424,1.424v10.88C9.174,24.368,8.537,25.006,7.75,25.006z"/>
<path fill="#595A5C" d="M14.179,14.125H7.75c-0.787,0-1.424-0.638-1.424-1.424s0.638-1.424,1.424-1.424h6.429
	c0.787,0,1.424,0.638,1.424,1.424S14.966,14.125,14.179,14.125z"/>
<path fill="#595A5C" d="M14.179,14.125c-0.787,0-1.424-0.638-1.424-1.424V8.25c0-0.787,0.638-1.424,1.424-1.424
	s1.424,0.638,1.424,1.424v4.451C15.604,13.488,14.966,14.125,14.179,14.125z"/>
<path fill="#595A5C" d="M23.477,9.674h-9.297c-0.787,0-1.424-0.638-1.424-1.424s0.638-1.424,1.424-1.424h9.297
	c0.787,0,1.425,0.638,1.425,1.424S24.264,9.674,23.477,9.674z"/>
<path fill="#595A5C" d="M23.57,25.304c-0.787,0-1.425-0.638-1.425-1.425V8.448c0-0.787,0.638-1.424,1.425-1.424
	s1.425,0.638,1.425,1.424v15.431C24.995,24.666,24.357,25.304,23.57,25.304z"/>
<path fill="#595A5C" d="M23.307,25.287H7.75c-0.777,0-1.408-0.631-1.408-1.408s0.63-1.408,1.408-1.408h15.557
	c0.777,0,1.408,0.631,1.408,1.408S24.084,25.287,23.307,25.287z"/>
<path fill="#595A5C" d="M14.377,24.631c-0.524,0-0.95-0.425-0.95-0.949v-6.035c0-0.524,0.425-0.949,0.95-0.949
	s0.95,0.425,0.95,0.949v6.035C15.327,24.206,14.901,24.631,14.377,24.631z"/>
<path fill="#595A5C" d="M18.926,18.596h-4.449c-0.524,0-0.95-0.425-0.95-0.949s0.425-0.949,0.95-0.949h4.449
	c0.524,0,0.949,0.425,0.949,0.949S19.45,18.596,18.926,18.596z"/>
</svg>
