<?xml version="1.0" encoding="utf-8"?>
<!-- Generator: Adobe Illustrator 16.0.0, SVG Export Plug-In . SVG Version: 6.00 Build 0)  -->
<!DOCTYPE svg PUBLIC "-//W3C//DTD SVG 1.1//EN" "http://www.w3.org/Graphics/SVG/1.1/DTD/svg11.dtd">
<svg version="1.1" id="Layer_1" xmlns="http://www.w3.org/2000/svg" xmlns:xlink="http://www.w3.org/1999/xlink" x="0px" y="0px"
	 width="32px" height="32px" viewBox="0 0 32 32" enable-background="new 0 0 32 32" xml:space="preserve">
<path fill="#595A5C" d="M15.995,31.969c-8.812,0-15.979-7.17-15.979-15.983C0.016,7.171,7.183,0,15.995,0
	C24.811,0,31.98,7.171,31.98,15.986C31.979,24.799,24.811,31.969,15.995,31.969 M15.995,2.668c-7.339,0-13.311,5.973-13.311,13.317
	c0,7.342,5.971,13.316,13.311,13.316c7.345,0,13.317-5.974,13.317-13.316C29.312,8.641,23.34,2.668,15.995,2.668"/>
<g>
	<path fill="#58595B" d="M23.443,15.111c-0.447-1.825-1.502-3.412-2.938-4.537c0.007-0.086,0.024-0.167,0.024-0.254
		c0-2.041-1.654-3.7-3.698-3.7c-1.601,0-2.952,1.026-3.467,2.451c-3.582,0.913-6.242,4.159-6.242,8.022
		c0,0.488,0.05,0.962,0.132,1.425c-0.691,0.674-1.124,1.609-1.124,2.649c0,2.042,1.656,3.698,3.698,3.698
		c0.626,0,1.207-0.17,1.724-0.444c1.152,0.606,2.463,0.958,3.854,0.958c2.625,0,4.964-1.23,6.483-3.14
		c0.096,0.009,0.186,0.028,0.28,0.028c2.043,0,3.699-1.656,3.699-3.697C25.869,16.979,24.857,15.633,23.443,15.111 M15.407,22.759
		c-0.739,0-1.442-0.151-2.089-0.409c0.127-0.373,0.21-0.767,0.21-1.182c0-2.041-1.656-3.7-3.699-3.7
		c-0.015,0-0.03,0.005-0.047,0.005c-0.008-0.127-0.038-0.248-0.038-0.379c0-2.433,1.547-4.492,3.701-5.294
		c0.572,1.306,1.871,2.22,3.387,2.22c0.97,0,1.845-0.381,2.505-0.992c0.614,0.594,1.081,1.326,1.378,2.144
		c-1.318,0.564-2.244,1.875-2.244,3.4c0,0.959,0.377,1.826,0.978,2.482C18.418,22.104,16.988,22.759,15.407,22.759"/>
</g>
</svg>
