<?xml version="1.0" encoding="utf-8"?>
<!-- Generator: Adobe Illustrator 16.0.0, SVG Export Plug-In . SVG Version: 6.00 Build 0)  -->
<!DOCTYPE svg PUBLIC "-//W3C//DTD SVG 1.1//EN" "http://www.w3.org/Graphics/SVG/1.1/DTD/svg11.dtd">
<svg version="1.1" id="Layer_1" xmlns="http://www.w3.org/2000/svg" xmlns:xlink="http://www.w3.org/1999/xlink" x="0px" y="0px"
	 width="32px" height="32px" viewBox="0 0 32 32" enable-background="new 0 0 32 32" xml:space="preserve">
<path fill="#595A5C" d="M15.995,31.969c-8.812,0-15.979-7.17-15.979-15.983C0.016,7.171,7.183,0,15.995,0
	C24.811,0,31.98,7.171,31.98,15.986C31.979,24.799,24.811,31.969,15.995,31.969 M15.995,2.668c-7.339,0-13.311,5.973-13.311,13.317
	c0,7.342,5.971,13.316,13.311,13.316c7.345,0,13.317-5.974,13.317-13.316C29.312,8.641,23.34,2.668,15.995,2.668"/>
<path fill="#595A5C" d="M25.167,16.409c0,1.87-4.181,3.388-9.328,3.388c-5.158,0-9.339-1.518-9.339-3.388
	c0-1.876,4.181-3.394,9.339-3.394C20.986,13.016,25.167,14.533,25.167,16.409z"/>
<circle fill="#595A5C" cx="12" cy="9.566" r="2.5"/>
<circle fill="#595A5C" cx="19" cy="9.399" r="2.5"/>
<circle fill="#595A5C" cx="12" cy="23.371" r="2.5"/>
<circle fill="#595A5C" cx="19" cy="23.305" r="2.5"/>
</svg>
