<?xml version="1.0" encoding="utf-8"?>
<!-- Generator: Adobe Illustrator 16.0.0, SVG Export Plug-In . SVG Version: 6.00 Build 0)  -->
<!DOCTYPE svg PUBLIC "-//W3C//DTD SVG 1.1//EN" "http://www.w3.org/Graphics/SVG/1.1/DTD/svg11.dtd">
<svg version="1.1" id="Layer_1" xmlns="http://www.w3.org/2000/svg" xmlns:xlink="http://www.w3.org/1999/xlink" x="0px" y="0px"
	 width="32px" height="32px" viewBox="0 0 32 32" enable-background="new 0 0 32 32" xml:space="preserve">
<path fill="#595A5C" d="M15.995,31.969c-8.812,0-15.979-7.17-15.979-15.983C0.016,7.171,7.183,0,15.995,0
	C24.811,0,31.98,7.171,31.98,15.986C31.979,24.799,24.811,31.969,15.995,31.969 M15.995,2.668c-7.339,0-13.311,5.973-13.311,13.317
	c0,7.342,5.971,13.316,13.311,13.316c7.345,0,13.317-5.974,13.317-13.316C29.312,8.641,23.34,2.668,15.995,2.668"/>
<g>
	<path fill="#5A5C5C" d="M22.832,18.6c0.104,0,0.199,0.013,0.293,0.027V7c0-1.104-0.896-2-2-2H11C9.896,5,9,5.896,9,7v11.6H22.832z
		 M12.372,7.614h7.255c0.268,0,0.484,0.269,0.484,0.6c0,0.332-0.217,0.6-0.484,0.6h-7.255c-0.269,0-0.488-0.269-0.488-0.6
		S12.103,7.614,12.372,7.614z M12.372,10.731h7.255c0.268,0,0.484,0.27,0.484,0.601s-0.217,0.599-0.484,0.599h-7.255
		c-0.269,0-0.488-0.268-0.488-0.599S12.103,10.731,12.372,10.731z"/>
	<path fill="#5A5C5C" d="M22.832,19.477H9v5.275c0,1.104,0.896,2,2,2h10.125c1.104,0,2-0.896,2-2v-5.303
		C23.031,19.464,22.936,19.477,22.832,19.477z M16.111,24.169c-0.743,0-1.346-0.603-1.346-1.346s0.603-1.347,1.346-1.347
		c0.744,0,1.346,0.604,1.346,1.347S16.854,24.169,16.111,24.169z"/>
</g>
</svg>
