<?xml version="1.0" encoding="utf-8"?>
<!-- Generator: Adobe Illustrator 16.0.0, SVG Export Plug-In . SVG Version: 6.00 Build 0)  -->
<!DOCTYPE svg PUBLIC "-//W3C//DTD SVG 1.1//EN" "http://www.w3.org/Graphics/SVG/1.1/DTD/svg11.dtd">
<svg version="1.1" id="Layer_1" xmlns="http://www.w3.org/2000/svg" xmlns:xlink="http://www.w3.org/1999/xlink" x="0px" y="0px"
	 width="32px" height="32px" viewBox="0 0 32 32" enable-background="new 0 0 32 32" xml:space="preserve">
<path fill="#595A5C" d="M15.995,31.969c-8.812,0-15.979-7.17-15.979-15.983C0.016,7.171,7.183,0,15.995,0
	C24.811,0,31.98,7.171,31.98,15.986C31.979,24.799,24.811,31.969,15.995,31.969 M15.995,2.668c-7.339,0-13.311,5.973-13.311,13.317
	c0,7.342,5.971,13.316,13.311,13.316c7.345,0,13.317-5.974,13.317-13.316C29.312,8.641,23.34,2.668,15.995,2.668"/>
<g>
	<path fill="#58595B" d="M20.548,20.55H11.45v-9.099h9.098V20.55z M14.07,17.93h3.856v-3.856H14.07V17.93z"/>
	<path fill="#58595B" d="M18.268,7.312c0,1.252-1.018,2.267-2.269,2.267c-1.252,0-2.267-1.015-2.267-2.267s1.015-2.268,2.267-2.268
		C17.25,5.044,18.268,6.06,18.268,7.312"/>
	<path fill="#58595B" d="M18.268,24.688c0,1.252-1.018,2.269-2.269,2.269c-1.252,0-2.267-1.017-2.267-2.269s1.015-2.267,2.267-2.267
		C17.25,22.422,18.268,23.438,18.268,24.688"/>
	<path fill="#58595B" d="M24.688,18.268c-1.252,0-2.267-1.017-2.267-2.268c0-1.253,1.015-2.268,2.267-2.268s2.269,1.015,2.269,2.268
		C26.956,17.251,25.939,18.268,24.688,18.268"/>
	<path fill="#58595B" d="M7.312,18.268c-1.252,0-2.268-1.017-2.268-2.268c0-1.253,1.016-2.268,2.268-2.268S9.578,14.747,9.578,16
		C9.578,17.251,8.563,18.268,7.312,18.268"/>
</g>
</svg>
