<?xml version="1.0" encoding="utf-8"?>
<!-- Generator: Adobe Illustrator 16.0.0, SVG Export Plug-In . SVG Version: 6.00 Build 0)  -->
<!DOCTYPE svg PUBLIC "-//W3C//DTD SVG 1.1//EN" "http://www.w3.org/Graphics/SVG/1.1/DTD/svg11.dtd">
<svg version="1.1" id="Layer_1" xmlns="http://www.w3.org/2000/svg" xmlns:xlink="http://www.w3.org/1999/xlink" x="0px" y="0px"
	 width="20px" height="14.5px" viewBox="0 0 20 14.5" enable-background="new 0 0 20 14.5" xml:space="preserve">
<g enable-background="new    ">
	<path fill="#666666" d="M18.805,0.328c0.186,0,0.371,0.094,0.495,0.217c0.155,0.155,0.247,0.341,0.247,0.558v12.13
		c0,0.217-0.092,0.464-0.247,0.557c-0.124,0.124-0.31,0.217-0.495,0.217H1.321c-0.216,0-0.371-0.093-0.495-0.217
		c-0.186-0.093-0.278-0.34-0.278-0.557V1.103c0-0.217,0.093-0.402,0.278-0.558C0.95,0.422,1.104,0.328,1.321,0.328H18.805z
		 M7.046,7.291L2.033,2.928v8.881L7.046,7.291z M16.824,2.093H3.271l6.746,5.972L16.824,2.093z M11.936,8.25l-1.424,1.331
		L9.521,9.55L8.19,8.25l-4.734,4.271h13.183L11.936,8.25z M13.049,7.291l5.044,4.518V2.928L13.049,7.291z"/>
</g>
</svg>
