<?xml version="1.0" encoding="utf-8"?>
<!-- Generator: Adobe Illustrator 16.0.0, SVG Export Plug-In . SVG Version: 6.00 Build 0)  -->
<!DOCTYPE svg PUBLIC "-//W3C//DTD SVG 1.1//EN" "http://www.w3.org/Graphics/SVG/1.1/DTD/svg11.dtd">
<svg version="1.1" id="Layer_1" xmlns="http://www.w3.org/2000/svg" xmlns:xlink="http://www.w3.org/1999/xlink" x="0px" y="0px"
	 width="32px" height="32px" viewBox="0 0 32 32" enable-background="new 0 0 32 32" xml:space="preserve">
<path fill="#595A5C" d="M17.713,20.149h-2.86c-0.007-0.413-0.011-0.663-0.011-0.754c0-0.927,0.153-1.689,0.459-2.289
	c0.307-0.596,0.92-1.27,1.841-2.018c0.919-0.749,1.47-1.238,1.647-1.472c0.276-0.365,0.415-0.769,0.415-1.211
	c0-0.611-0.243-1.138-0.734-1.577c-0.489-0.437-1.149-0.655-1.979-0.655c-0.801,0-1.47,0.228-2.007,0.684
	c-0.542,0.455-0.91,1.152-1.112,2.087l-2.894-0.36c0.082-1.338,0.651-2.476,1.709-3.411c1.06-0.934,2.448-1.401,4.169-1.401
	c1.811,0,3.25,0.472,4.32,1.419c1.069,0.948,1.604,2.047,1.604,3.304c0,0.696-0.196,1.354-0.587,1.975
	c-0.394,0.62-1.233,1.464-2.519,2.535c-0.668,0.553-1.081,1.001-1.241,1.333C17.771,18.679,17.699,19.28,17.713,20.149
	 M14.853,21.237h3.153v3.151h-3.153V21.237z"/>
<path fill="#595A5C" d="M15.936,31.87C7.148,31.87,0,24.722,0,15.935C0,7.147,7.148,0,15.936,0C24.728,0,31.88,7.147,31.88,15.935
	C31.88,24.722,24.728,31.87,15.936,31.87 M15.936,2.66c-7.318,0-13.274,5.955-13.274,13.275c0,7.32,5.956,13.277,13.274,13.277
	c7.324,0,13.284-5.957,13.284-13.277C29.22,8.615,23.26,2.66,15.936,2.66"/>
</svg>
