<?xml version="1.0" encoding="utf-8"?>
<!-- Generator: Adobe Illustrator 16.0.0, SVG Export Plug-In . SVG Version: 6.00 Build 0)  -->
<!DOCTYPE svg PUBLIC "-//W3C//DTD SVG 1.1//EN" "http://www.w3.org/Graphics/SVG/1.1/DTD/svg11.dtd">
<svg version="1.1" id="Layer_1" xmlns="http://www.w3.org/2000/svg" xmlns:xlink="http://www.w3.org/1999/xlink" x="0px" y="0px"
	 width="32px" height="32px" viewBox="0.5 32.5 32 32" enable-background="new 0.5 32.5 32 32" xml:space="preserve">
<path fill="#595A5C" d="M16.515,34.603c6.451,5.435,11.47,9.612,15.06,12.538c0.401,0.315,0.602,0.706,0.602,1.168
	c0,0.414-0.15,0.773-0.451,1.078c-0.302,0.305-0.666,0.457-1.094,0.457h-3.16V60.48c0,0.416-0.15,0.773-0.453,1.08
	c-0.303,0.304-0.665,0.456-1.093,0.456H21.22c-0.427,0-0.796-0.152-1.11-0.456c-0.313-0.307-0.472-0.664-0.472-1.08v-6.068h-6.286
	v6.068c0,0.416-0.151,0.773-0.452,1.08c-0.302,0.304-0.665,0.456-1.092,0.456H7.103c-0.427,0-0.797-0.152-1.111-0.456
	c-0.314-0.307-0.471-0.664-0.471-1.08V49.844H2.396c-0.426,0-0.796-0.152-1.11-0.457c-0.314-0.305-0.471-0.664-0.471-1.078
	c0-0.413,0.188-0.803,0.565-1.168L16.515,34.603z"/>
</svg>
