<?xml version="1.0" encoding="utf-8"?>
<!-- Generator: Adobe Illustrator 16.0.0, SVG Export Plug-In . SVG Version: 6.00 Build 0)  -->
<!DOCTYPE svg PUBLIC "-//W3C//DTD SVG 1.1//EN" "http://www.w3.org/Graphics/SVG/1.1/DTD/svg11.dtd">
<svg version="1.1" id="Layer_1" xmlns="http://www.w3.org/2000/svg" xmlns:xlink="http://www.w3.org/1999/xlink" x="0px" y="0px"
	 width="32px" height="32px" viewBox="0 0 32 32" enable-background="new 0 0 32 32" xml:space="preserve">
<path fill="#595A5C" d="M16.023,31.937c-8.794,0-15.946-7.151-15.946-15.942c0-8.792,7.152-15.944,15.946-15.944
	c8.798,0,15.955,7.152,15.955,15.944C31.979,24.785,24.821,31.937,16.023,31.937 M16.023,2.71c-7.324,0-13.284,5.959-13.284,13.284
	c0,7.323,5.96,13.281,13.284,13.281c7.329,0,13.292-5.958,13.292-13.281C29.315,8.669,23.353,2.71,16.023,2.71"/>
<polygon fill="#595A5C" points="24.982,18.346 14.652,18.346 14.652,7.503 17.313,7.503 17.313,15.684 24.982,15.684 "/>
</svg>
