<?xml version="1.0" encoding="utf-8"?>
<!-- Generator: Adobe Illustrator 16.0.0, SVG Export Plug-In . SVG Version: 6.00 Build 0)  -->
<!DOCTYPE svg PUBLIC "-//W3C//DTD SVG 1.1//EN" "http://www.w3.org/Graphics/SVG/1.1/DTD/svg11.dtd">
<svg version="1.1" id="Layer_1" xmlns="http://www.w3.org/2000/svg" xmlns:xlink="http://www.w3.org/1999/xlink" x="0px" y="0px"
	 width="32px" height="32px" viewBox="0 0 32 32" enable-background="new 0 0 32 32" xml:space="preserve">
<path fill="#595A5C" d="M15.995,31.969c-8.812,0-15.979-7.17-15.979-15.983C0.016,7.171,7.183,0,15.995,0
	C24.811,0,31.98,7.171,31.98,15.986C31.979,24.799,24.811,31.969,15.995,31.969 M15.995,2.668c-7.339,0-13.311,5.973-13.311,13.317
	c0,7.342,5.971,13.316,13.311,13.316c7.345,0,13.317-5.974,13.317-13.316C29.312,8.641,23.34,2.668,15.995,2.668"/>
<path fill="#58595B" d="M17.195,19.302h-2.562c-0.006-0.368-0.01-0.593-0.01-0.673c0-0.83,0.137-1.514,0.411-2.051
	c0.274-0.534,0.824-1.136,1.647-1.807c0.823-0.67,1.316-1.108,1.477-1.317c0.248-0.326,0.371-0.688,0.371-1.084
	c0-0.549-0.219-1.02-0.657-1.412c-0.438-0.391-1.029-0.588-1.772-0.588c-0.717,0-1.316,0.205-1.798,0.613
	c-0.484,0.408-0.814,1.032-0.996,1.869l-2.591-0.322c0.073-1.197,0.583-2.217,1.53-3.055c0.949-0.836,2.192-1.255,3.733-1.255
	c1.622,0,2.911,0.423,3.87,1.271c0.957,0.849,1.436,1.834,1.436,2.959c0,0.623-0.176,1.213-0.526,1.769
	c-0.353,0.556-1.104,1.312-2.256,2.271c-0.597,0.496-0.967,0.895-1.11,1.195C17.248,17.986,17.184,18.525,17.195,19.302
	 M14.634,20.477h2.823v2.822h-2.823V20.477z"/>
</svg>
