<?xml version="1.0" encoding="utf-8"?>
<!-- Generator: Adobe Illustrator 16.0.0, SVG Export Plug-In . SVG Version: 6.00 Build 0)  -->
<!DOCTYPE svg PUBLIC "-//W3C//DTD SVG 1.1//EN" "http://www.w3.org/Graphics/SVG/1.1/DTD/svg11.dtd">
<svg version="1.1" id="Layer_1" xmlns="http://www.w3.org/2000/svg" xmlns:xlink="http://www.w3.org/1999/xlink" x="0px" y="0px"
	 width="32px" height="32px" viewBox="0 0 32 32" enable-background="new 0 0 32 32" xml:space="preserve">
<path fill="#3481C5" d="M15.995,31.969c-8.812,0-15.979-7.17-15.979-15.983C0.016,7.171,7.183,0,15.995,0
	C24.811,0,31.98,7.171,31.98,15.986C31.979,24.799,24.811,31.969,15.995,31.969 M15.995,2.668c-7.339,0-13.311,5.973-13.311,13.317
	c0,7.342,5.971,13.316,13.311,13.316c7.345,0,13.317-5.974,13.317-13.316C29.312,8.641,23.34,2.668,15.995,2.668"/>
<path fill="#3481C5" d="M23.607,21.17H8.419c-0.958,0-1.737-0.816-1.737-1.82V9.166c0-1.004,0.779-1.821,1.737-1.821h15.188
	c0.957,0,1.734,0.817,1.734,1.821V19.35c0.002,0.492-0.191,0.974-0.533,1.315C24.484,20.991,24.059,21.17,23.607,21.17z
	 M8.419,9.083V19.35l15.157,0.084l0.029-10.268L8.419,9.083z"/>
<path fill="#3481C5" d="M26.426,22.909c0,0.47-0.543,0.85-1.209,0.85H7.137c-0.669,0-1.212-0.38-1.212-0.85l0,0
	c0-0.47,0.543-0.853,1.212-0.853h18.08C25.883,22.059,26.426,22.439,26.426,22.909L26.426,22.909z"/>
<path fill="#3481C5" d="M21.748,10.232H10.221c-0.364,0-0.659,0.283-0.659,0.63v6.742c0,0.353,0.295,0.631,0.659,0.631h11.527
	c0.363,0,0.658-0.278,0.658-0.631v-6.742C22.406,10.515,22.111,10.232,21.748,10.232z M18.215,16.435
	c-0.43,0.393-1.139,0.836-2.495,0.836c-1.892,0-3.204-0.986-3.204-2.849c0-2.006,1.598-2.819,3.279-2.819
	c0.61,0,2.359,0.136,3.053,1.658l-1.463,0.181c-0.144-0.226-0.558-0.859-1.59-0.859c-1.206,0-1.892,0.837-1.892,1.854
	c0,1.161,0.912,1.854,1.922,1.854c1.153,0,1.508-0.679,1.681-1.003l1.402-0.006C18.811,15.614,18.689,15.999,18.215,16.435z"/>
</svg>
