<?xml version="1.0" encoding="utf-8"?>
<!-- Generator: Adobe Illustrator 16.0.0, SVG Export Plug-In . SVG Version: 6.00 Build 0)  -->
<!DOCTYPE svg PUBLIC "-//W3C//DTD SVG 1.1//EN" "http://www.w3.org/Graphics/SVG/1.1/DTD/svg11.dtd">
<svg version="1.1" id="Layer_1" xmlns="http://www.w3.org/2000/svg" xmlns:xlink="http://www.w3.org/1999/xlink" x="0px" y="0px"
	 width="32px" height="32px" viewBox="0 0 32 32" enable-background="new 0 0 32 32" xml:space="preserve">
<path fill="#595A5C" d="M15.995,31.969c-8.812,0-15.979-7.17-15.979-15.983C0.016,7.171,7.183,0,15.995,0
	C24.811,0,31.98,7.171,31.98,15.986C31.979,24.799,24.811,31.969,15.995,31.969 M15.995,2.668c-7.339,0-13.311,5.973-13.311,13.317
	c0,7.342,5.971,13.316,13.311,13.316c7.345,0,13.317-5.974,13.317-13.316C29.312,8.641,23.34,2.668,15.995,2.668"/>
<g transform="translate(0.000000,512.000000) scale(0.100000,-0.100000)">
	<path fill="#595A5C" d="M106.059,5041.743c-18.799-2.036-33.35-17.173-34.976-36.255l-0.239-2.915l2.827,0.044
		c1.577,0,3.486-0.127,4.321-0.298c0.786-0.156,2.031-0.415,2.739-0.542c3.457-0.62,9.106-3.862,12.686-7.354
		c3.325-3.198,4.653-5.4,8.11-13.179c1.699-3.784,3.193-7.031,3.369-7.188c0.205-0.181,1.787,0.034,3.535,0.449
		c5.317,1.25,18.418,2.993,26.528,3.53c1.245,0.088,4.067,0.254,6.235,0.425c2.163,0.166,4.897,0.366,6.021,0.449
		c5.615,0.371,25.605,0.132,32.041-0.415c1.611-0.127,4.238-0.332,5.82-0.459c4.697-0.337,11.016-0.957,13.096-1.24
		c0.791-0.132,2.041-0.293,2.705-0.381c0.703-0.122,2.461-0.376,3.945-0.62c1.494-0.254,3.369-0.542,4.16-0.659
		c0.801-0.132,2.207-0.503,3.105-0.796c1.914-0.669,1.973-0.62,3.477,2.954c0.527,1.201,1.66,3.779,2.578,5.693
		c0.898,1.953,1.66,3.662,1.66,3.779c0,0.43,3.418,5.322,4.766,6.816c1.973,2.158,5.898,4.951,9.16,6.445
		c3.496,1.665,6.816,2.412,11.016,2.539l3.105,0.122v2.007c0,1.118-0.195,3.364-0.488,4.946
		c-2.734,14.844-13.359,26.606-27.715,30.728c-1.973,0.581-4.59,1.201-5.801,1.323
		C210.849,5042.114,109.629,5042.158,106.059,5041.743z"/>
	<path fill="#595A5C" d="M72.876,4989.965c-0.044-0.044-0.952-0.21-2.031-0.327c-6.489-0.874-12.476-5.625-14.98-11.899
		c-0.659-1.777-0.864-3.203-0.913-6.445c-0.049-4.741,0.171-5.615,1.836-8.94c1.904-3.818,6.851-8.145,10.269-8.984
		c1.084-0.293,1.455-0.742,1.577-1.982c0.083-0.498,0.249-1.924,0.376-3.174c0.161-1.25,0.376-3.203,0.498-4.355
		c0.122-1.123,0.293-2.539,0.381-3.125c0.078-0.586,0.371-2.92,0.62-5.195c0.239-2.275,0.542-4.697,0.625-5.4
		c0.083-0.684,0.288-2.461,0.415-3.945c0.459-4.707,1.582-7.168,4.609-10.117c1.875-1.816,6.909-4.443,9.937-5.195
		c1.167-0.293,2.539-0.664,3.125-0.82c0.581-0.137,31.519-0.332,68.818-0.391c74.062-0.156,71.67-0.195,77.842,2.246
		c3.877,1.504,5.469,2.578,7.783,5.156c2.676,2.949,3.281,4.414,3.74,8.896c0.43,3.984,0.713,6.289,1.094,9.365
		c0.205,1.699,0.508,4.238,0.625,5.615c0.146,1.367,0.332,2.91,0.4,3.447c0.088,0.547,0.303,2.207,0.479,3.73
		c0.449,4.834,0.371,4.619,2.646,5.488c10.4,4.043,14.834,17.305,9.033,26.953c-6.963,11.475-23.135,12.48-31.104,1.87
		c-0.84-1.084-3.828-7.148-6.65-13.467l-5.127-11.519l-1.904,0.581c-8.408,2.617-20.127,5.073-31.602,6.655
		c-0.586,0.034-2.168,0.244-3.545,0.371c-1.367,0.166-3.164,0.327-3.945,0.415c-8.35,0.991-27.788,0.991-35.981,0
		c-0.928-0.088-2.705-0.293-3.95-0.449c-2.744-0.303-4.785-0.542-6.45-0.801c-0.664-0.127-1.987-0.288-2.905-0.415
		c-0.918-0.122-2.036-0.332-2.539-0.41c-0.503-0.127-1.621-0.293-2.495-0.42c-4.902-0.752-20.542-4.443-22.627-5.366
		c-0.654-0.288-1.157,0.62-4.57,8.276c-0.742,1.621-1.699,3.74-2.163,4.78c-0.493,1.04-1.455,3.291-2.202,4.99
		c-1.953,4.746-2.866,6.279-4.946,8.442c-1.963,1.992-6.104,4.536-8.35,5.078C77.075,4989.55,73.047,4990.087,72.876,4989.965z"/>
	<path fill="#595A5C" d="M239.951,4901.826c-1.426-1.182-5.342-2.549-8.301-2.959c-1.123-0.156-4.883-0.342-8.32-0.41l-6.23-0.088
		l-0.117-4.736c-0.146-5.537,0.4-7.539,2.637-9.492c2.051-1.836,4.102-2.197,10.615-2.031c5.625,0.137,5.732,0.137,7.48,1.406
		c3.203,2.324,3.633,3.789,3.701,12.09c0,3.965-0.049,7.197-0.068,7.197C241.26,4902.763,240.683,4902.353,239.951,4901.826z"/>
	<path fill="#595A5C" d="M77.573,4894.414c0.083-8.105,0.547-9.619,3.706-11.895c1.787-1.27,1.826-1.27,7.651-1.455
		c6.567-0.117,8.315,0.205,10.474,2.08c2.036,1.797,2.705,3.955,2.832,9.443c0.078,3.916,0,4.668-0.542,4.688
		c-0.337,0-3.159,0.098-6.24,0.137c-8.276,0.166-12.725,1.006-15.84,2.988c-0.874,0.537-1.714,1.006-1.831,1.006
		C77.656,4901.406,77.573,4898.232,77.573,4894.414z"/>
</g>
</svg>
