<?xml version="1.0" encoding="utf-8"?>
<!-- Generator: Adobe Illustrator 16.0.0, SVG Export Plug-In . SVG Version: 6.00 Build 0)  -->
<!DOCTYPE svg PUBLIC "-//W3C//DTD SVG 1.1//EN" "http://www.w3.org/Graphics/SVG/1.1/DTD/svg11.dtd">
<svg version="1.1" id="Layer_1" xmlns="http://www.w3.org/2000/svg" xmlns:xlink="http://www.w3.org/1999/xlink" x="0px" y="0px"
	 width="66.667px" height="96px" viewBox="0 0 66.667 96" enable-background="new 0 0 66.667 96" xml:space="preserve">
<g>
	<path fill-rule="evenodd" clip-rule="evenodd" d="M32.364,95.033c-2.099-4.216-4.149-8.318-6.185-12.427
		c-3.754-7.578-7.492-15.165-11.266-22.734c-0.252-0.506-0.688-0.962-1.134-1.323C3.201,49.995-1.133,38.926,1.794,25.7
		C4.738,12.401,13.419,4.059,26.706,1.068C44.763-2.998,62.656,9.537,65.24,27.945c1.67,11.9-2.267,21.832-11.337,29.741
		c-0.87,0.758-1.658,1.7-2.22,2.705C45.449,71.514,39.268,82.666,33.071,93.81C32.866,94.179,32.649,94.542,32.364,95.033z
		 M52.067,32.707c-0.01-10.394-8.428-18.75-18.887-18.746c-10.295,0.004-18.71,8.486-18.676,18.827
		c0.034,10.302,8.545,18.771,18.822,18.73C43.641,51.478,52.077,43.009,52.067,32.707z"/>
</g>
</svg>
