<?xml version="1.0" encoding="utf-8"?>
<!-- Generator: Adobe Illustrator 16.0.0, SVG Export Plug-In . SVG Version: 6.00 Build 0)  -->
<!DOCTYPE svg PUBLIC "-//W3C//DTD SVG 1.1//EN" "http://www.w3.org/Graphics/SVG/1.1/DTD/svg11.dtd">
<svg version="1.1" id="Layer_1" xmlns="http://www.w3.org/2000/svg" xmlns:xlink="http://www.w3.org/1999/xlink" x="0px" y="0px"
	 width="32px" height="32px" viewBox="0 0 32 32" enable-background="new 0 0 32 32" xml:space="preserve">
<path fill="#595A5C" d="M15.995,31.969c-8.812,0-15.979-7.17-15.979-15.983C0.016,7.171,7.183,0,15.995,0
	C24.811,0,31.98,7.171,31.98,15.986C31.979,24.799,24.811,31.969,15.995,31.969 M15.995,2.668c-7.339,0-13.311,5.973-13.311,13.317
	c0,7.342,5.971,13.316,13.311,13.316c7.345,0,13.317-5.974,13.317-13.316C29.312,8.641,23.34,2.668,15.995,2.668"/>
<path fill="#5A5B5C" d="M8.879,19.987c-0.082-0.634-0.043-1.557-0.043-2.005L9.785,7.233h3.525l-0.968,10.854
	c-0.208,2.351,0.714,4.027,3.061,4.027c2.384,0,3.641-1.706,3.851-3.789l0.993-11.093h3.524l-0.967,10.943
	c-0.399,4.229-3.191,7.389-7.695,7.389C11.584,25.565,9.312,23.28,8.879,19.987"/>
</svg>
