<?xml version="1.0" encoding="utf-8"?>
<!-- Generator: Adobe Illustrator 16.0.0, SVG Export Plug-In . SVG Version: 6.00 Build 0)  -->
<!DOCTYPE svg PUBLIC "-//W3C//DTD SVG 1.1//EN" "http://www.w3.org/Graphics/SVG/1.1/DTD/svg11.dtd">
<svg version="1.1" id="Layer_1" xmlns="http://www.w3.org/2000/svg" xmlns:xlink="http://www.w3.org/1999/xlink" x="0px" y="0px"
	 width="32px" height="32px" viewBox="0 0 32 32" enable-background="new 0 0 32 32" xml:space="preserve">
<path fill="#595A5C" d="M15.995,31.969c-8.812,0-15.979-7.17-15.979-15.983C0.016,7.171,7.183,0,15.995,0
	C24.811,0,31.98,7.171,31.98,15.986C31.979,24.799,24.811,31.969,15.995,31.969 M15.995,2.668c-7.339,0-13.311,5.973-13.311,13.317
	c0,7.342,5.971,13.316,13.311,13.316c7.345,0,13.317-5.974,13.317-13.316C29.312,8.641,23.34,2.668,15.995,2.668"/>
<path fill="#5A5B5C" d="M24.055,22.406H7.401c-1.025,0-1.86-0.835-1.86-1.861V10.367c0-1.026,0.834-1.861,1.86-1.861h16.652
	c1.025,0,1.86,0.835,1.86,1.861v10.178c0.001,0.496-0.192,0.964-0.544,1.315C25.019,22.213,24.552,22.406,24.055,22.406z
	 M7.401,10.324L7.359,20.545l16.695,0.043c0.022,0,0.041-0.02,0.041-0.043l-0.001-10.178L7.401,10.324z"/>
<path fill="#5A5B5C" d="M23.064,19.006c0,0.363-0.34,0.656-0.76,0.656H9.012c-0.419,0-0.759-0.293-0.759-0.656v-7.017
	c0-0.362,0.34-0.656,0.759-0.656h13.292c0.42,0,0.76,0.294,0.76,0.656V19.006z"/>
<path fill="#5A5B5C" d="M20.509,24.305c0,0.469-0.231,0.85-0.518,0.85h-7.738c-0.287,0-0.519-0.381-0.519-0.85l0,0
	c0-0.47,0.232-0.853,0.519-0.853h7.738C20.275,23.452,20.509,23.835,20.509,24.305L20.509,24.305z"/>
</svg>
