<?xml version="1.0" encoding="utf-8"?>
<!-- Generator: Adobe Illustrator 16.0.0, SVG Export Plug-In . SVG Version: 6.00 Build 0)  -->
<!DOCTYPE svg PUBLIC "-//W3C//DTD SVG 1.1//EN" "http://www.w3.org/Graphics/SVG/1.1/DTD/svg11.dtd">
<svg version="1.1" id="Layer_1" xmlns="http://www.w3.org/2000/svg" xmlns:xlink="http://www.w3.org/1999/xlink" x="0px" y="0px"
	 width="32px" height="32px" viewBox="0 0 32 32" enable-background="new 0 0 32 32" xml:space="preserve">
<path fill="#595A5C" d="M15.989,0.003c-8.813,0-15.983,7.169-15.983,15.982c0,8.812,7.17,15.981,15.983,15.981
	c8.816,0,15.987-7.169,15.987-15.981C31.977,7.172,24.806,0.003,15.989,0.003 M15.989,29.301c-7.341,0-13.315-5.974-13.315-13.315
	S8.648,2.67,15.989,2.67c7.346,0,13.321,5.973,13.321,13.315S23.335,29.301,15.989,29.301"/>
<polygon fill="#595A5C" points="17.351,8.724 14.679,8.724 14.679,14.735 8.665,14.735 8.665,17.407 14.679,17.407 14.679,23.415 
	17.351,23.415 17.351,17.407 23.363,17.407 23.363,14.735 17.351,14.735 "/>
</svg>
