<?xml version="1.0" encoding="utf-8"?>
<!-- Generator: Adobe Illustrator 16.0.0, SVG Export Plug-In . SVG Version: 6.00 Build 0)  -->
<!DOCTYPE svg PUBLIC "-//W3C//DTD SVG 1.1//EN" "http://www.w3.org/Graphics/SVG/1.1/DTD/svg11.dtd">
<svg version="1.1" id="Layer_1" xmlns="http://www.w3.org/2000/svg" xmlns:xlink="http://www.w3.org/1999/xlink" x="0px" y="0px"
	 width="32px" height="32px" viewBox="0 0 32 32" enable-background="new 0 0 32 32" xml:space="preserve">
<path fill="#595A5C" d="M15.997,31.973C7.175,31.973,0,24.803,0,15.989C0,7.174,7.175,0.003,15.997,0.003
	c8.822,0,16.001,7.171,16.001,15.986C31.998,24.803,24.819,31.973,15.997,31.973 M15.997,2.67C8.647,2.67,2.67,8.643,2.67,15.988
	c0,7.342,5.977,13.316,13.327,13.316c7.351,0,13.33-5.976,13.33-13.316C29.327,8.643,23.348,2.67,15.997,2.67"/>
<path fill="#595A5C" d="M15.98,12.71L7.995,8.605v13.569l7.985,4.105l7.984-4.105V8.605L15.98,12.71z M10.661,12.973l3.985,2.05
	v7.575l-3.985-2.051V12.973z M21.298,20.547l-3.985,2.051v-7.575l3.985-2.05V20.547z"/>
</svg>
