<?xml version="1.0" encoding="utf-8"?>
<!-- Generator: Adobe Illustrator 16.0.0, SVG Export Plug-In . SVG Version: 6.00 Build 0)  -->
<!DOCTYPE svg PUBLIC "-//W3C//DTD SVG 1.1//EN" "http://www.w3.org/Graphics/SVG/1.1/DTD/svg11.dtd">
<svg version="1.1" id="Layer_1" xmlns="http://www.w3.org/2000/svg" xmlns:xlink="http://www.w3.org/1999/xlink" x="0px" y="0px"
	 width="32px" height="32px" viewBox="0 0 32 32" enable-background="new 0 0 32 32" xml:space="preserve">
<path fill="#595A5C" d="M15.995,31.969c-8.812,0-15.979-7.17-15.979-15.983C0.016,7.171,7.183,0,15.995,0
	C24.811,0,31.98,7.171,31.98,15.986C31.979,24.799,24.811,31.969,15.995,31.969 M15.995,2.668c-7.339,0-13.311,5.973-13.311,13.317
	c0,7.342,5.971,13.316,13.311,13.316c7.345,0,13.317-5.974,13.317-13.316C29.312,8.641,23.34,2.668,15.995,2.668"/>
<g enable-background="new    ">
	<path fill="#595A5C" d="M9.67,9.725c0.367,0,0.705,0.055,1.012,0.165s0.572,0.268,0.796,0.472s0.397,0.452,0.521,0.743
		s0.185,0.617,0.185,0.978c0,0.321-0.048,0.623-0.145,0.903c-0.097,0.281-0.249,0.527-0.455,0.737
		c-0.207,0.211-0.474,0.377-0.801,0.497c-0.327,0.12-0.721,0.181-1.181,0.181H8.251v2.408H6.926V9.725H9.67z M8.251,13.316h1.164
		c0.943,0,1.415-0.421,1.415-1.264c0-0.285-0.052-0.506-0.155-0.662c-0.104-0.155-0.233-0.271-0.387-0.348s-0.323-0.123-0.506-0.14
		c-0.184-0.017-0.356-0.025-0.517-0.025H8.251V13.316z"/>
	<path fill="#595A5C" d="M16.057,9.725c0.421,0,0.826,0.068,1.214,0.205c0.388,0.138,0.732,0.352,1.033,0.643
		s0.542,0.664,0.723,1.119s0.271,1,0.271,1.636c0,0.568-0.076,1.068-0.227,1.5s-0.367,0.794-0.652,1.089
		c-0.284,0.294-0.632,0.517-1.043,0.667c-0.412,0.15-0.878,0.226-1.4,0.226h-2.679V9.725H16.057z M14.623,15.614h0.823
		c0.381,0,0.724-0.024,1.028-0.075c0.304-0.05,0.562-0.155,0.772-0.315c0.211-0.161,0.371-0.392,0.482-0.692
		c0.109-0.302,0.165-0.703,0.165-1.204c0-0.436-0.052-0.807-0.155-1.114s-0.251-0.557-0.441-0.747
		c-0.191-0.191-0.42-0.33-0.688-0.417c-0.268-0.087-0.565-0.13-0.893-0.13h-1.094V15.614z"/>
	<path fill="#595A5C" d="M21.816,10.908v1.767h2.961v1.153h-2.961v2.98h-1.314V9.725h4.686v1.184H21.816z"/>
</g>
<g>
	<g>
		<polygon fill="#595A5C" points="13.774,25.906 20.252,22.167 13.774,18.428 		"/>
	</g>
</g>
</svg>
