<?xml version="1.0" encoding="utf-8"?>
<!-- Generator: Adobe Illustrator 16.0.0, SVG Export Plug-In . SVG Version: 6.00 Build 0)  -->
<!DOCTYPE svg PUBLIC "-//W3C//DTD SVG 1.1//EN" "http://www.w3.org/Graphics/SVG/1.1/DTD/svg11.dtd">
<svg version="1.1" id="Layer_1" xmlns="http://www.w3.org/2000/svg" xmlns:xlink="http://www.w3.org/1999/xlink" x="0px" y="0px"
	 width="32px" height="32px" viewBox="0 0 32 32" enable-background="new 0 0 32 32" xml:space="preserve">
<path fill="#595A5C" d="M15.995,31.969c-8.812,0-15.979-7.17-15.979-15.983C0.016,7.171,7.183,0,15.995,0
	C24.811,0,31.98,7.171,31.98,15.986C31.979,24.799,24.811,31.969,15.995,31.969 M15.995,2.668c-7.339,0-13.311,5.973-13.311,13.317
	c0,7.342,5.971,13.316,13.311,13.316c7.345,0,13.317-5.974,13.317-13.316C29.312,8.641,23.34,2.668,15.995,2.668"/>
<g>
	<path fill="#58595B" d="M16.089,25.132l-0.03-3.015c0.642-0.006,1.273-0.11,1.878-0.312l0.951,2.86
		C17.986,24.967,17.044,25.123,16.089,25.132 M13.279,24.721c-0.914-0.285-1.771-0.71-2.549-1.262L12.473,21
		c0.52,0.369,1.093,0.65,1.704,0.843L13.279,24.721z M21.411,23.355l-1.785-2.428c0.515-0.378,0.965-0.833,1.34-1.353l2.444,1.763
		C22.852,22.113,22.18,22.792,21.411,23.355 M8.695,21.482c-0.574-0.765-1.024-1.606-1.333-2.508l2.85-0.98
		c0.206,0.602,0.506,1.166,0.892,1.679L8.695,21.482z M24.693,18.805l-2.866-0.927c0.194-0.604,0.293-1.235,0.293-1.879
		l-0.005-0.247l3.011-0.115c0.006,0.12,0.007,0.24,0.007,0.362C25.133,16.957,24.986,17.9,24.693,18.805 M6.867,16.183v-0.2
		c0-0.881,0.129-1.767,0.385-2.618l2.886,0.866C9.967,14.801,9.881,15.395,9.881,16L6.867,16.183z M21.747,13.887
		c-0.22-0.597-0.531-1.158-0.927-1.662l2.373-1.859c0.59,0.753,1.055,1.588,1.384,2.483L21.747,13.887z M10.962,12.518l-2.479-1.714
		c0.544-0.785,1.202-1.479,1.958-2.056l1.833,2.391C11.768,11.526,11.326,11.99,10.962,12.518 M19.426,10.925
		c-0.527-0.358-1.105-0.629-1.72-0.808l0.838-2.895c0.917,0.266,1.784,0.672,2.574,1.209L19.426,10.925z M13.945,10.229l-1.007-2.84
		c0.895-0.317,1.833-0.493,2.791-0.521l0.088,3.013C15.174,9.899,14.544,10.018,13.945,10.229"/>
</g>
</svg>
