<?xml version="1.0" encoding="utf-8"?>
<!-- Generator: Adobe Illustrator 16.0.0, SVG Export Plug-In . SVG Version: 6.00 Build 0)  -->
<!DOCTYPE svg PUBLIC "-//W3C//DTD SVG 1.1//EN" "http://www.w3.org/Graphics/SVG/1.1/DTD/svg11.dtd">
<svg version="1.1" id="Layer_1" xmlns="http://www.w3.org/2000/svg" xmlns:xlink="http://www.w3.org/1999/xlink" x="0px" y="0px"
	 width="32px" height="32px" viewBox="0 0 32 32" enable-background="new 0 0 32 32" xml:space="preserve">
<path fill="#595A5C" d="M15.995,31.969c-8.812,0-15.979-7.17-15.979-15.983C0.016,7.171,7.183,0,15.995,0
	C24.811,0,31.98,7.171,31.98,15.986C31.979,24.799,24.811,31.969,15.995,31.969 M15.995,2.668c-7.339,0-13.311,5.973-13.311,13.317
	c0,7.342,5.971,13.316,13.311,13.316c7.345,0,13.317-5.974,13.317-13.316C29.312,8.641,23.34,2.668,15.995,2.668"/>
<path fill="#595A5C" d="M11.933,21.905c0,0.646-0.336,1.172-0.75,1.172H8.016c-0.414,0-0.75-0.524-0.75-1.172l0,0
	c0-0.646,0.336-1.173,0.75-1.173h3.167C11.597,20.732,11.933,21.259,11.933,21.905L11.933,21.905z"/>
<path fill="#595A5C" d="M23.531,21.905c0,0.646-0.336,1.172-0.75,1.172h-3.168c-0.413,0-0.75-0.524-0.75-1.172l0,0
	c0-0.646,0.337-1.173,0.75-1.173h3.168C23.195,20.732,23.531,21.259,23.531,21.905L23.531,21.905z"/>
<g>
	<path fill="#595A5C" d="M21.273,13.265c-1.485,0-2.694,1.208-2.694,2.693c0,1.485,1.209,2.692,2.694,2.692
		c1.483,0,2.691-1.207,2.691-2.692C23.965,14.473,22.758,13.265,21.273,13.265z"/>
	<path fill="#595A5C" d="M26.666,12.626c0-1.175-0.896-2.127-2-2.127H6.833c-1.104,0-2,0.952-2,2.127v6.919
		c0,1.175,0.896,2.127,2,2.127h17.834c1.104,0,2-0.952,2-2.127L26.666,12.626z M8.032,18.484c0,0.386-0.313,0.699-0.699,0.699
		s-0.699-0.312-0.699-0.699v-4.917c0-0.386,0.313-0.699,0.699-0.699s0.699,0.313,0.699,0.699V18.484z M10.733,18.484
		c0,0.386-0.313,0.699-0.699,0.699c-0.386,0-0.699-0.312-0.699-0.699v-4.917c0-0.386,0.313-0.699,0.699-0.699
		c0.386,0,0.699,0.313,0.699,0.699V18.484z M21.273,19.85c-2.146,0-3.893-1.746-3.893-3.892c0-2.145,1.746-3.891,3.893-3.891
		c2.145,0,3.89,1.746,3.89,3.891C25.163,18.104,23.418,19.85,21.273,19.85z"/>
</g>
</svg>
