<?xml version="1.0" encoding="utf-8"?>
<!-- Generator: Adobe Illustrator 16.0.0, SVG Export Plug-In . SVG Version: 6.00 Build 0)  -->
<!DOCTYPE svg PUBLIC "-//W3C//DTD SVG 1.1//EN" "http://www.w3.org/Graphics/SVG/1.1/DTD/svg11.dtd">
<svg version="1.1" id="Layer_1" xmlns="http://www.w3.org/2000/svg" xmlns:xlink="http://www.w3.org/1999/xlink" x="0px" y="0px"
	 width="32px" height="32px" viewBox="0 0 32 32" enable-background="new 0 0 32 32" xml:space="preserve">
<path fill="#595A5C" d="M15.995,31.969c-8.812,0-15.979-7.17-15.979-15.983C0.016,7.171,7.183,0,15.995,0
	C24.811,0,31.98,7.171,31.98,15.986C31.979,24.799,24.811,31.969,15.995,31.969 M15.995,2.668c-7.339,0-13.311,5.973-13.311,13.317
	c0,7.342,5.971,13.316,13.311,13.316c7.345,0,13.317-5.974,13.317-13.316C29.312,8.641,23.34,2.668,15.995,2.668"/>
<polygon id="polygon1" fill="#595A5C" points="21.326,5.116 13.889,11.555 6.843,11.555 6.843,19.852 13.782,19.852 21.326,26.381 
	"/>
<line fill="none" stroke="#595A5C" stroke-width="3" stroke-miterlimit="10" x1="5.767" y1="26.697" x2="27.6" y2="6.867"/>
<line fill="none" stroke="#FFFFFF" stroke-width="0.8622" stroke-miterlimit="10" x1="6.034" y1="23.93" x2="24.852" y2="6.834"/>
<line fill="none" stroke="#FFFFFF" stroke-width="0.8368" stroke-miterlimit="10" x1="8.733" y1="26.631" x2="27" y2="10.036"/>
</svg>
