<?xml version="1.0" encoding="utf-8"?>
<!-- Generator: Adobe Illustrator 16.0.0, SVG Export Plug-In . SVG Version: 6.00 Build 0)  -->
<!DOCTYPE svg PUBLIC "-//W3C//DTD SVG 1.1//EN" "http://www.w3.org/Graphics/SVG/1.1/DTD/svg11.dtd">
<svg version="1.1" id="Layer_1" xmlns="http://www.w3.org/2000/svg" xmlns:xlink="http://www.w3.org/1999/xlink" x="0px" y="0px"
	 width="32px" height="32px" viewBox="0 0 32 32" enable-background="new 0 0 32 32" xml:space="preserve">
<path fill="#595A5C" d="M15.995,31.969c-8.812,0-15.979-7.17-15.979-15.983C0.016,7.171,7.183,0,15.995,0
	C24.811,0,31.98,7.171,31.98,15.986C31.979,24.799,24.811,31.969,15.995,31.969 M15.995,2.668c-7.339,0-13.311,5.973-13.311,13.317
	c0,7.342,5.971,13.316,13.311,13.316c7.345,0,13.317-5.974,13.317-13.316C29.312,8.641,23.34,2.668,15.995,2.668"/>
<path fill="#58595B" d="M17.228,25.211h-2.455l-0.31-0.872c-1.78-5.014-7.792-5.876-7.853-5.884l0.349-2.598
	C7.237,15.895,13.086,16.735,16,21.5c2.913-4.765,8.764-5.605,9.041-5.643l0.352,2.598c-0.061,0.008-6.089,0.903-7.855,5.884
	L17.228,25.211z"/>
<path fill="#58595B" d="M16,15.904c-2.314,0-4.197-1.882-4.197-4.196S13.686,7.512,16,7.512c2.314,0,4.197,1.882,4.197,4.196
	S18.314,15.904,16,15.904z M16,10.133c-0.869,0-1.576,0.707-1.576,1.575s0.707,1.575,1.576,1.575c0.869,0,1.576-0.707,1.576-1.575
	S16.869,10.133,16,10.133z"/>
</svg>
