<?xml version="1.0" encoding="utf-8"?>
<!-- Generator: Adobe Illustrator 16.0.0, SVG Export Plug-In . SVG Version: 6.00 Build 0)  -->
<!DOCTYPE svg PUBLIC "-//W3C//DTD SVG 1.1//EN" "http://www.w3.org/Graphics/SVG/1.1/DTD/svg11.dtd">
<svg version="1.1" id="Layer_1" xmlns="http://www.w3.org/2000/svg" xmlns:xlink="http://www.w3.org/1999/xlink" x="0px" y="0px"
	 width="32px" height="32px" viewBox="0 0 32 32" enable-background="new 0 0 32 32" xml:space="preserve">
<g>
	<path fill="#595A5C" d="M15.995,31.969c-8.812,0-15.979-7.17-15.979-15.983C0.016,7.171,7.183,0,15.995,0
		C24.811,0,31.98,7.171,31.98,15.986C31.979,24.799,24.811,31.969,15.995,31.969 M15.995,2.668c-7.339,0-13.311,5.973-13.311,13.317
		c0,7.342,5.971,13.316,13.311,13.316c7.345,0,13.317-5.974,13.317-13.316C29.312,8.641,23.34,2.668,15.995,2.668"/>
	<path fill="#5A5B5C" d="M24.295,21.724H7.306c-1.723,0-3.125-1.335-3.125-2.976v-2.49c0-1.643,1.402-2.979,3.125-2.979h16.989
		c1.724,0,3.125,1.336,3.125,2.979v2.49C27.42,20.389,26.019,21.724,24.295,21.724z M7.306,15.719c-0.372,0-0.685,0.247-0.685,0.539
		v2.49c0,0.29,0.313,0.536,0.685,0.536h16.989c0.371,0,0.686-0.246,0.686-0.536v-2.49c0-0.292-0.314-0.539-0.686-0.539H7.306z"/>
	<path fill="#5A5B5C" d="M26.072,16.32c-0.146,0-0.294-0.026-0.438-0.082L7.854,9.405C7.224,9.163,6.91,8.458,7.152,7.829
		C7.394,7.2,8.102,6.884,8.729,7.127l17.781,6.834c0.629,0.242,0.943,0.947,0.701,1.576C27.024,16.023,26.562,16.32,26.072,16.32z"
		/>
</g>
</svg>
