<?xml version="1.0" encoding="utf-8"?>
<!-- Generator: Adobe Illustrator 16.0.0, SVG Export Plug-In . SVG Version: 6.00 Build 0)  -->
<!DOCTYPE svg PUBLIC "-//W3C//DTD SVG 1.1//EN" "http://www.w3.org/Graphics/SVG/1.1/DTD/svg11.dtd">
<svg version="1.1" id="Layer_1" xmlns="http://www.w3.org/2000/svg" xmlns:xlink="http://www.w3.org/1999/xlink" x="0px" y="0px"
	 width="32px" height="32px" viewBox="0 0 32 32" enable-background="new 0 0 32 32" xml:space="preserve">
<path fill="#595A5C" d="M21.158,6.896c-1.363-0.793-2.953-1.008-4.476-0.604c-3.148,0.834-5.031,4.074-4.197,7.221
	c0.289,1.092,0.879,2.049,1.688,2.799l-3.965,6.825l2.266,1.316l3.963-6.822c1.054,0.33,2.177,0.371,3.269,0.08
	c1.525-0.402,2.803-1.377,3.594-2.743c0.793-1.363,1.006-2.955,0.602-4.48C23.498,8.964,22.523,7.687,21.158,6.896 M19.035,15.177
	c-1.697,0.449-3.566-0.637-4.017-2.334c-0.463-1.75,0.584-3.553,2.333-4.018c0.848-0.225,1.732-0.105,2.49,0.336
	c0.76,0.441,1.301,1.15,1.525,1.998c0.227,0.85,0.105,1.734-0.334,2.494C20.592,14.412,19.883,14.953,19.035,15.177"/>
<path fill="#595A5C" d="M15.996,31.889c-8.787,0-15.936-7.148-15.936-15.935c0-8.788,7.148-15.935,15.936-15.935
	c8.792,0,15.944,7.147,15.944,15.935C31.94,24.74,24.788,31.889,15.996,31.889 M15.996,2.678c-7.318,0-13.274,5.955-13.274,13.275
	c0,7.32,5.956,13.277,13.274,13.277c7.324,0,13.284-5.957,13.284-13.277C29.28,8.633,23.32,2.678,15.996,2.678"/>
</svg>
