<?xml version="1.0" encoding="utf-8"?>
<!-- Generator: Adobe Illustrator 16.0.0, SVG Export Plug-In . SVG Version: 6.00 Build 0)  -->
<!DOCTYPE svg PUBLIC "-//W3C//DTD SVG 1.1//EN" "http://www.w3.org/Graphics/SVG/1.1/DTD/svg11.dtd">
<svg version="1.1" id="Layer_1" xmlns="http://www.w3.org/2000/svg" xmlns:xlink="http://www.w3.org/1999/xlink" x="0px" y="0px"
	 width="32px" height="32px" viewBox="0 0 32 32" enable-background="new 0 0 32 32" xml:space="preserve">
<path fill="#595A5C" d="M15.995,31.969c-8.812,0-15.979-7.17-15.979-15.983C0.016,7.171,7.183,0,15.995,0
	C24.811,0,31.98,7.171,31.98,15.986C31.979,24.799,24.811,31.969,15.995,31.969 M15.995,2.668c-7.339,0-13.311,5.973-13.311,13.317
	c0,7.342,5.971,13.316,13.311,13.316c7.345,0,13.317-5.974,13.317-13.316C29.312,8.641,23.34,2.668,15.995,2.668"/>
<path fill="#595A5C" d="M20.852,14.471H6.299c-0.813,0-1.472-0.659-1.472-1.472s0.659-1.472,1.472-1.472h14.553
	c0.813,0,1.473,0.659,1.473,1.472S21.665,14.471,20.852,14.471z"/>
<path fill="#595A5C" d="M18.155,21.4c-0.184,0-0.371-0.035-0.553-0.108c-0.753-0.306-1.116-1.164-0.811-1.918l3.682-9.074
	c0.306-0.752,1.16-1.119,1.918-0.811c0.753,0.306,1.116,1.165,0.811,1.918l-3.682,9.074C19.288,21.054,18.737,21.4,18.155,21.4z"/>
<path fill="#595A5C" d="M25.727,12.326h-3.596c-0.813,0-1.473-0.659-1.473-1.472s0.659-1.472,1.473-1.472h3.596
	c0.813,0,1.473,0.659,1.473,1.472S26.54,12.326,25.727,12.326z"/>
<path fill="#595A5C" d="M8.813,21.49c-0.574,0-1.119-0.338-1.356-0.899l-2.963-7.009c-0.316-0.749,0.034-1.613,0.783-1.929
	c0.749-0.314,1.613,0.034,1.929,0.783l2.963,7.009c0.316,0.749-0.034,1.612-0.783,1.93C9.199,21.453,9.005,21.49,8.813,21.49z"/>
<rect x="8.813" y="18.528" fill="#595A5C" width="9.562" height="2.979"/>
<circle fill="#595A5C" cx="10.897" cy="24.009" r="2.133"/>
<path fill="#595A5C" d="M18.686,24.045c0,1.178-0.955,2.133-2.133,2.133c-1.182,0-2.137-0.955-2.137-2.133
	c0-1.179,0.955-2.133,2.137-2.133C17.729,21.912,18.686,22.866,18.686,24.045z"/>
</svg>
