<?xml version="1.0" encoding="utf-8"?>
<!-- Generator: Adobe Illustrator 16.0.0, SVG Export Plug-In . SVG Version: 6.00 Build 0)  -->
<!DOCTYPE svg PUBLIC "-//W3C//DTD SVG 1.1//EN" "http://www.w3.org/Graphics/SVG/1.1/DTD/svg11.dtd">
<svg version="1.1" id="Layer_1" xmlns="http://www.w3.org/2000/svg" xmlns:xlink="http://www.w3.org/1999/xlink" x="0px" y="0px"
	 width="32px" height="32px" viewBox="0 0 32 32" enable-background="new 0 0 32 32" xml:space="preserve">
<path fill="#595A5C" d="M15.986-0.011c-8.804,0-15.969,7.16-15.969,15.958c0,8.8,7.165,15.959,15.969,15.959
	c8.81,0,15.979-7.159,15.979-15.959C31.966,7.148,24.796-0.011,15.986-0.011 M2.683,15.947c0-5.925,3.9-10.953,9.27-12.666V7
	l-4.852,4.848l1.887,1.882l2.965-2.962v10.27h11.213v6.088c-2.075,1.335-4.534,2.117-7.18,2.117
	C8.651,29.242,2.683,23.279,2.683,15.947 M25.831,24.866v-6.491H14.618v-7.608l2.963,2.963l1.886-1.882l-4.849-4.849V2.724
	c0.45-0.046,0.906-0.071,1.368-0.071c7.342,0,13.314,5.964,13.314,13.295C29.301,19.382,27.979,22.505,25.831,24.866"/>
</svg>
