<?xml version="1.0" encoding="utf-8"?>
<!-- Generator: Adobe Illustrator 16.0.0, SVG Export Plug-In . SVG Version: 6.00 Build 0)  -->
<!DOCTYPE svg PUBLIC "-//W3C//DTD SVG 1.1//EN" "http://www.w3.org/Graphics/SVG/1.1/DTD/svg11.dtd">
<svg version="1.1" id="Layer_1" xmlns="http://www.w3.org/2000/svg" xmlns:xlink="http://www.w3.org/1999/xlink" x="0px" y="0px"
	 width="32px" height="32px" viewBox="0 0 32 32" enable-background="new 0 0 32 32" xml:space="preserve">
<path fill="#595A5C" d="M15.995,31.969c-8.812,0-15.979-7.17-15.979-15.983C0.016,7.171,7.183,0,15.995,0
	C24.811,0,31.98,7.171,31.98,15.986C31.979,24.799,24.811,31.969,15.995,31.969 M15.995,2.668c-7.339,0-13.311,5.973-13.311,13.317
	c0,7.342,5.971,13.316,13.311,13.316c7.345,0,13.317-5.974,13.317-13.316C29.312,8.641,23.34,2.668,15.995,2.668"/>
<path fill="#5A5B5C" d="M23.802,7.93H15c0.157,0.526,0.208,1.108,0.131,1.738l8.709,0.023l0.001,9.629
	c0,0.02-0.017,0.039-0.036,0.039l-8.302-0.021c0.018,0.592-0.059,1.184-0.241,1.741h8.543c0.969,0,1.758-0.789,1.758-1.76V9.691
	C25.562,8.72,24.773,7.93,23.802,7.93z"/>
<path fill="#5A5B5C" d="M22.146,10.604h-6.703c-0.016,2.627,0.03,5.254,0.103,7.88h6.601c0.398,0,0.72-0.276,0.72-0.62v-6.639
	C22.866,10.882,22.543,10.604,22.146,10.604z"/>
<path fill="#5A5B5C" d="M19.959,22.07h-4.951c0.133,0.524,0.183,1.068,0.146,1.611h4.805c0.27,0,0.489-0.361,0.489-0.805
	S20.229,22.07,19.959,22.07z"/>
<path fill="#5A5B5C" d="M15.601,25.661c-0.502,0-0.909-0.407-0.909-0.909V7c0-0.502,0.407-0.909,0.909-0.909S16.512,6.498,16.512,7
	v17.752C16.512,25.254,16.103,25.661,15.601,25.661z"/>
<path fill="#5A5B5C" d="M15.5,7.534h-6c-0.502,0-0.909-0.407-0.909-0.909S8.998,5.716,9.5,5.716h6c0.502,0,0.909,0.407,0.909,0.909
	S16.002,7.534,15.5,7.534z"/>
<circle fill="#58595B" cx="12.359" cy="15.688" r="1.562"/>
</svg>
