<?xml version="1.0" encoding="utf-8"?>
<!-- Generator: Adobe Illustrator 16.0.0, SVG Export Plug-In . SVG Version: 6.00 Build 0)  -->
<!DOCTYPE svg PUBLIC "-//W3C//DTD SVG 1.1//EN" "http://www.w3.org/Graphics/SVG/1.1/DTD/svg11.dtd">
<svg version="1.1" id="Layer_1" xmlns="http://www.w3.org/2000/svg" xmlns:xlink="http://www.w3.org/1999/xlink" x="0px" y="0px"
	 width="32px" height="32px" viewBox="0 0 32 32" enable-background="new 0 0 32 32" xml:space="preserve">
<path fill="#595A5C" d="M15.995,31.969c-8.812,0-15.979-7.17-15.979-15.983C0.016,7.171,7.183,0,15.995,0
	C24.811,0,31.98,7.171,31.98,15.986C31.979,24.799,24.811,31.969,15.995,31.969 M15.995,2.668c-7.339,0-13.311,5.973-13.311,13.317
	c0,7.342,5.971,13.316,13.311,13.316c7.345,0,13.317-5.974,13.317-13.316C29.312,8.641,23.34,2.668,15.995,2.668"/>
<path fill="#58595B" d="M20.01,23.945c-1.568,0.658-2.835,0.859-4.683,0.859c-4.199,0-7.993-3.011-7.993-7.994
	c0-5.139,3.819-9.617,9.562-9.617c4.479,0,7.77,3.062,7.77,7.312c0,3.668-2.053,6.047-4.938,6.047c-1.264,0-2.071-0.633-2.274-1.848
	h-0.076c-0.733,1.189-1.848,1.848-3.112,1.848c-1.721,0-2.885-1.266-2.885-3.365c0-3.085,2.202-5.817,5.896-5.817
	c1.139,0,2.531,0.278,3.138,0.631l-0.708,4.731c-0.202,1.289-0.076,1.896,0.582,1.925c0.984,0.049,2.302-1.191,2.302-4.099
	c0-3.138-2.075-5.644-5.972-5.644c-3.795,0-7.135,2.911-7.135,7.616c0,4.25,2.683,6.528,6.451,6.528c1.215,0,2.607-0.254,3.62-0.733
	L20.01,23.945z M17.402,13.699c-0.176-0.052-0.379-0.076-0.582-0.076c-1.417,0-2.504,1.466-2.504,3.161
	c0,0.911,0.354,1.42,1.062,1.42c0.709,0,1.543-0.888,1.72-2.303L17.402,13.699z"/>
</svg>
