<?xml version="1.0" encoding="utf-8"?>
<!-- Generator: Adobe Illustrator 16.0.0, SVG Export Plug-In . SVG Version: 6.00 Build 0)  -->
<!DOCTYPE svg PUBLIC "-//W3C//DTD SVG 1.1//EN" "http://www.w3.org/Graphics/SVG/1.1/DTD/svg11.dtd">
<svg version="1.1" id="Layer_1" xmlns="http://www.w3.org/2000/svg" xmlns:xlink="http://www.w3.org/1999/xlink" x="0px" y="0px"
	 width="20px" height="20px" viewBox="0 0 20 20" enable-background="new 0 0 20 20" xml:space="preserve">
<g enable-background="new    ">
	<path fill="#666666" d="M14.42,19.279C8.015,16.528,3.381,12.008,0.706,5.528c-0.904-2.186,0.038-4.069,2.298-4.747
		c0.376-0.151,0.753-0.151,1.167,0C5.114,1.12,7.562,4.436,7.601,5.415c0.038,0.753-0.49,1.168-0.979,1.545
		c-0.98,0.678-0.98,1.469-0.565,2.411c0.904,2.109,2.486,3.579,4.597,4.482c0.753,0.377,1.469,0.302,1.996-0.452
		c0.904-1.394,1.997-1.28,3.277-0.451c0.604,0.451,1.206,0.866,1.847,1.318c0.753,0.641,1.808,1.205,1.28,2.524
		c-0.489,1.431-2.185,2.787-3.654,2.787C15.173,19.543,14.758,19.505,14.42,19.279z M19.468,9.483c0,0.527,0.15,1.206-0.527,1.206
		c-0.641,0-0.489-0.754-0.528-1.281c-0.678-5.161-3.051-7.572-8.212-8.363c-0.452-0.038-1.13,0-1.055-0.527
		c0.038-0.904,0.791-0.527,1.206-0.565C15.285,0.103,19.506,4.624,19.468,9.483z M16.529,9.672
		c-0.829,0.113-0.604-0.564-0.678-1.017c-0.566-3.203-1.658-4.295-4.822-5.086c-0.527-0.076-1.206-0.038-1.093-0.679
		c0.151-0.678,0.753-0.489,1.244-0.414c3.164,0.414,5.764,3.164,5.688,6.179C16.868,8.994,17.094,9.635,16.529,9.672z M13.967,8.919
		c-0.301,0.075-0.527-0.227-0.564-0.604c-0.113-1.318-0.791-2.034-2.109-2.298c-0.377-0.075-0.791-0.15-0.604-0.641
		c0.188-0.376,0.414-0.376,0.754-0.376c1.432-0.076,3.051,1.582,3.051,3.089C14.494,8.467,14.457,8.844,13.967,8.919z"/>
</g>
</svg>
