<?xml version="1.0" encoding="utf-8"?>
<!-- Generator: Adobe Illustrator 16.0.0, SVG Export Plug-In . SVG Version: 6.00 Build 0)  -->
<!DOCTYPE svg PUBLIC "-//W3C//DTD SVG 1.1//EN" "http://www.w3.org/Graphics/SVG/1.1/DTD/svg11.dtd">
<svg version="1.1" id="Layer_1" xmlns="http://www.w3.org/2000/svg" xmlns:xlink="http://www.w3.org/1999/xlink" x="0px" y="0px"
	 width="32px" height="32px" viewBox="0 0 32 32" enable-background="new 0 0 32 32" xml:space="preserve">
<path fill="#595A5C" d="M15.996,31.889c-8.787,0-15.936-7.147-15.936-15.935c0-8.788,7.148-15.935,15.936-15.935
	c8.792,0,15.943,7.147,15.943,15.935C31.939,24.74,24.788,31.889,15.996,31.889 M15.996,2.678c-7.318,0-13.274,5.955-13.274,13.275
	S8.678,29.23,15.996,29.23c7.324,0,13.283-5.957,13.283-13.277S23.32,2.678,15.996,2.678"/>
<path id="path3530_1_" fill="#595A5C" d="M11.824,4.712c-0.058,0-0.123,0.023-0.191,0.062C11.791,4.726,11.866,4.712,11.824,4.712
	 M15.722,5.47l0.035-0.572l-0.599,0.039l0.078,0.531h0.486 M8.936,15.312c-0.123-0.115-0.042-0.608-0.042-0.608
	s-1.805-0.948-3.772-1.521c-0.242-0.07-0.119-0.567,0.121-0.758L5.162,11.89c-0.04-0.265,0.404-1.558,0.845-1.669
	c0.442-0.115-0.04,0.759-0.04,0.759l-0.441,0.265c0,0,0.522,0.608,0.64,0.608c0.123,0,0.323-0.304,0.323-0.304l-0.562-0.379
	l0.523-0.227l0.03-0.204l0.091-0.028l0.864-1.309c0.597-0.242,1.331-0.545,1.425-0.59c0.16-0.077,1.281-0.721,1.485-0.874
	c0.198-0.151,0.64-0.11,0.802-0.11c0.158,0,0.4-0.078,0.439-0.497c0.042-0.417,0.201-0.495,0.321-0.381
	c0.122,0.113-0.121,0.305,0.162,0.381c0.279,0.077,0.52,0.267,0.72,0.077c0.147-0.139-0.049-0.299-0.18-0.417h2.228l0.242-0.687
	l-0.523-0.076l-1.924-0.191V5.811l-0.155,0.028c0.208-1.148,1.447-0.957,0.515-1.623c-0.059-0.04-0.873,1.287-1.082,1.258
	c-0.376-0.05-0.86-0.052-0.965,0.072c-0.137,0.162,0.306-0.557,0.692-0.773c-0.46,0.135-1.277-0.283-2.753,0.76
	c-0.498,0.353-1.75,1.78-2.269,2.332c-2.176,2.57-2.353,4.773-2.353,4.868c0,0.191,0.462,0.298,0.5,0.526
	c0.039,0.225-0.762,0.987-0.762,1.365c0,0.178-0.399,2.075,0.481,4.448c0.781,2.252,2.298,4.238,2.494,4.361l0.555-0.295
	c0,0-0.922-1.635-0.964-1.786c-0.039-0.15,1.045-2.356,1.568-2.28c0.522,0.075,0.402,0.229,0.721,0.037
	c0.325-0.188,0.522-1.746,0.884-1.897c0.363-0.153,0.764-0.342,0.724-0.721C10.421,16.108,9.056,15.425,8.936,15.312 M17.645,4.139
	l-1.082-0.377l0.2,0.605L17.645,4.139 M13.591,5.547c0.122,0,2.528-1.597,2.288-1.636c-0.241-0.037-0.281,0-0.924-0.077
	c-0.639-0.072-1.323,0.914-1.484,1.067C13.312,5.052,13.365,5.547,13.591,5.547 M24.644,17.004l0.308-0.404l-0.308-0.109
	l-0.234,0.292l-0.271,0.404l0.233,0.107L24.644,17.004 M26.003,18.322l-0.077-0.586H25.42l-0.038,0.438l-0.468-0.072L24.8,17.625
	l-0.233-0.146l-0.273,0.329l-0.273-0.071l-0.077,0.256l0.311,0.073v2.382l1.101,0.266c-0.024,0.043-0.044,0.078-0.052,0.098
	c-0.077,0.26,0.313,0.371,0.582,0.26c0.1-0.042,0.734-0.287,0.936-0.762c0.28-0.669,0.461-1.627,0.51-1.938l-0.124-0.269
	l-0.777,0.293l-0.429-0.073H26.003 M25.615,8.577c-1.778-2.696-6.05-4.458-6.05-4.458l-1.1,0.574L18.31,4.44l-0.388-0.146v0.328
	l0.351,0.296l-0.234,0.109l-0.894,0.071l-2.018,1.103l0.192,0.878l-0.232,0.075l-0.114,0.178l0.658,0.991l0.04,0.331l-0.544,0.11
	v0.659l-0.312,0.072l0.039,0.511l-2.643,1.836l0.077,1.022c0.195,0.258,1.71,1.795,1.71,1.795s1.75,0.071,2.138-0.146
	c0.389-0.218,0.116,0.217,0.235,0.33c0.114,0.11,0.154,0.878,0.267,0.951c0.121,0.074,0,0.513,0.158,0.664
	c0.154,0.142,0.154,1.902,0.154,1.902s0.934,1.575,0.934,1.978c0,0.401-0.042,0.366,0.698,0.328
	c0.737-0.033,0.893-0.328,1.048-0.438c0.155-0.109,0.155-0.367,0.311-0.587c0.158-0.22,0.429-1.06,0.779-1.351
	c0.348-0.297,1.281-0.518,1.359-1.027c0.077-0.514,0.425-0.917,0.425-0.917l1.683-1.775l-0.047,0.235l-0.042,0.916l0.507-0.182
	l-0.039-0.988l-0.182-0.194l0.024-0.027c0,0-0.114-0.222-0.269-0.222c-0.156,0-1.087,0.222-1.244,0.186
	c-0.153-0.039-0.816-1.795-0.932-1.871c-0.118-0.071-0.854-1.28-0.854-1.28s1.707,2.052,1.979,2.856
	c0.158,0.47,0.751,0.031,1.232-0.456l0.128,0.311l0.311-0.076l-0.04-0.366h0.351v0.551l-0.118,0.295l-0.04,0.475l0.311,0.292
	l0.157-0.255l0.502-0.476L26.469,14l0.155,0.294l0.079,0.401l-0.156,0.44l-0.311,0.257l-0.156,0.658v0.33l-0.35-0.22l-0.038-0.692
	l-0.505,0.036l-0.233,0.623l0.352,0.511l0.815,0.109l0.658-0.621l0.077-1.207l0.296-0.388c0.192,0.491,0.329,1.007,0.329,1.485
	c0,0.525,0.417-0.268,0.211-1.87C27.692,14.148,27.373,10.337,25.615,8.577L25.615,8.577z M17.843,10.152l-2.098-0.075l0.894-0.73
	h0.465l0.739,0.514V10.152 M20.407,9.898v0.33h-0.891l0.077,0.22l-0.545,0.075l-0.041,0.179l-0.384-0.07l-0.702-0.146l0.116-0.185
	l0.118-0.221l0.389-0.402l0.156,0.293l0.581-0.037l0.312-0.329l1.205,0.216L20.407,9.898 M20.484,9.423l-0.466,0.072l-0.077-0.33
	l0.583-0.071l0.079-0.33l0.427,0.438L20.484,9.423L20.484,9.423 M22.738,20.811l-0.271,0.222l0.037,0.55h0.353v-0.477l0.311-0.402
	v-0.844l-0.196-0.037L22.738,20.811L22.738,20.811 M20.137,19.714c0,0-0.272,0.072,0.038,0.184c0.31,0.109,1.554-1.795,1.554-1.795
	l-1.048,0.659L20.137,19.714L20.137,19.714 M18.02,26.732l-0.229-0.221l-0.465-0.075l-0.079,0.224l-0.621-0.074l-0.041-0.294h-0.465
	l-0.505,0.294h-0.892l-0.077-0.221l-1.437-0.149l-0.233,0.224l-0.584-0.146l-0.077-0.518l-0.271-0.037l-0.311,0.554l-1.049-0.038
	c0.189,0.091,1.752,1.021,4.153,1.218c3.184,0.258,4.698-0.516,4.698-0.516l-0.115-0.111L18.02,26.732L18.02,26.732L18.02,26.732
	L18.02,26.732z"/>
</svg>
